<?xml version="1.0" encoding="iso-8859-1"?>
<!-- Generator: Adobe Illustrator 19.0.0, SVG Export Plug-In . SVG Version: 6.00 Build 0)  -->
<svg version="1.1" id="Capa_1" xmlns="http://www.w3.org/2000/svg" xmlns:xlink="http://www.w3.org/1999/xlink" x="0px" y="0px"
	 viewBox="0 0 486.4 486.4" style="enable-background:new 0 0 486.4 486.4;" xml:space="preserve">
<path style="fill:#4DCFE0;" d="M412.212,239.543H259.135v-62.171h-31.347v62.171H74.71c-8.882,0-15.673,6.792-15.673,15.673v79.935
	h31.347V270.89h137.404v64.261h31.347V270.89h137.404v64.261h31.347v-79.935C427.886,246.335,421.094,239.543,412.212,239.543z"/>
<g>
	<path style="fill:#1185E0;" d="M313.469,193.045H173.976c-8.882,0-15.673-6.792-15.673-15.673V21.682
		c0-8.882,6.792-15.673,15.673-15.673h139.494c8.882,0,15.673,6.792,15.673,15.673v155.69
		C329.143,186.253,322.351,193.045,313.469,193.045z M189.649,161.698h108.147V37.355H189.649V161.698z"/>
	<path style="fill:#1185E0;" d="M470.727,480.392H358.4c-8.882,0-15.673-6.792-15.673-15.673V335.151
		c0-8.882,6.792-15.673,15.673-15.673h112.327c8.882,0,15.673,6.792,15.673,15.673v129.567
		C486.4,473.6,479.608,480.392,470.727,480.392z M374.073,449.045h80.98v-98.22h-80.98V449.045z"/>
	<path style="fill:#1185E0;" d="M128,480.392H15.673C6.792,480.392,0,473.6,0,464.718V335.151c0-8.882,6.792-15.673,15.673-15.673
		H128c8.882,0,15.673,6.792,15.673,15.673v129.567C143.673,473.6,136.882,480.392,128,480.392z M31.347,449.045h80.98v-98.22h-80.98
		V449.045z"/>
	<path style="fill:#1185E0;" d="M299.363,480.392H187.037c-8.882,0-15.673-6.792-15.673-15.673V335.151
		c0-8.882,6.792-15.673,15.673-15.673h112.327c8.882,0,15.673,6.792,15.673,15.673v129.567
		C315.037,473.6,308.245,480.392,299.363,480.392z M202.71,449.045h80.98v-98.22h-80.98V449.045z"/>
</g>
<g>
</g>
<g>
</g>
<g>
</g>
<g>
</g>
<g>
</g>
<g>
</g>
<g>
</g>
<g>
</g>
<g>
</g>
<g>
</g>
<g>
</g>
<g>
</g>
<g>
</g>
<g>
</g>
<g>
</g>
</svg>
