<svg xmlns="http://www.w3.org/2000/svg" width="68" height="68" viewBox="0 0 68 68">
    <g fill="none" fill-rule="evenodd">
        <path fill="#E5A329" d="M9 6l4.845 52.569 21.01 5.956 21.003-5.956 4.854-52.57z"/>
        <path fill="#F0BE22" d="M34.856 10.282v49.791l17.013-4.823 4.144-44.968z"/>
        <path fill="#FEFEFE" d="M48.392 16.733H22.223l-1.819 19.683.039-.124h22.229l-.726 8.326-7.09 2.044-7.2-2.075-.431-5.039h-6.536l.934 10.07 13.233 3.757 13.232-3.757 1.821-19.76H26.322l.3-6.59h16.373l.24 3.772h6.594z"/>
        <path fill="#EAEAEA" d="M27.225 39.549h-6.536l.934 10.069 13.233 3.75v-6.706l-7.2-2.075-.431-5.038zm7.63-22.816H22.224l-1.82 19.683.04-.124h14.413v-6.435h-7.624l.3-6.589h7.324v-6.535z"/>
    </g>
</svg>
