<?xml version="1.0"?>
<svg xmlns="http://www.w3.org/2000/svg" xmlns:xlink="http://www.w3.org/1999/xlink" version="1.1" id="Layer_1" x="0px" y="0px" viewBox="0 0 512 512" style="enable-background:new 0 0 512 512;" xml:space="preserve" width="512px" height="512px" class=""><g><g>
	<polygon style="fill:#587FC6" points="406.069,105.931 300.138,105.931 300.138,0  " data-original="#BDC3C7" class="active-path" data-old_color="#6392E9"/>
	<polygon style="fill:#F36FA0" points="158.897,406.069 512,406.069 512,194.207 158.897,194.207  " data-original="#F36FA0" class=""/>
	<path style="fill:#FFFFFF" d="M317.793,379.586c-24.338,0-44.138-19.8-44.138-44.138c0-4.873,3.955-8.828,8.828-8.828   c4.873,0,8.828,3.955,8.828,8.828c0,14.601,11.882,26.483,26.483,26.483c14.601,0,26.483-11.882,26.483-26.483   s-11.882-26.483-26.483-26.483c-24.338,0-44.138-19.8-44.138-44.138c0-24.338,19.8-44.138,44.138-44.138   c24.338,0,44.138,19.8,44.138,44.138c0,4.873-3.955,8.828-8.828,8.828c-4.873,0-8.828-3.955-8.828-8.828   c0-14.601-11.882-26.483-26.483-26.483c-14.601,0-26.483,11.882-26.483,26.483c0,14.601,11.882,26.483,26.483,26.483   c24.338,0,44.138,19.8,44.138,44.138S342.131,379.586,317.793,379.586" data-original="#FFFFFF" class=""/>
	<polygon style="fill:#DBE1FF" points="158.897,406.069 158.897,194.207 406.069,194.207 406.069,105.931 300.138,105.931    300.138,0 0,0 0,512 406.069,512 406.069,406.069  " data-original="#ECF0F1" class="" data-old_color="#DCE2FF"/>
	<g>
		<path style="fill:#FFFFFF" d="M220.69,379.586c-19.474,0-35.31-15.837-35.31-35.31c0-4.873,3.955-8.828,8.828-8.828    s8.828,3.955,8.828,8.828c0,9.737,7.918,17.655,17.655,17.655s17.655-7.918,17.655-17.655V238.345    c0-4.873,3.955-8.828,8.828-8.828c4.873,0,8.828,3.955,8.828,8.828v105.931C256,363.75,240.163,379.586,220.69,379.586" data-original="#FFFFFF" class=""/>
		<path style="fill:#FFFFFF" d="M476.698,379.586c-2.94,0-5.817-1.474-7.495-4.149l-88.276-141.241    c-2.586-4.131-1.333-9.578,2.807-12.164c4.131-2.578,9.578-1.333,12.164,2.807l88.276,141.241    c2.586,4.131,1.333,9.578-2.807,12.164C479.912,379.154,478.296,379.586,476.698,379.586" data-original="#FFFFFF" class=""/>
		<path style="fill:#FFFFFF" d="M388.405,379.586c-1.598,0-3.213-0.433-4.67-1.342c-4.14-2.586-5.394-8.033-2.807-12.164    l88.276-141.241c2.578-4.14,8.042-5.394,12.164-2.807c4.14,2.586,5.394,8.033,2.807,12.164L395.9,375.437    C394.222,378.112,391.345,379.586,388.405,379.586" data-original="#FFFFFF" class=""/>
	</g>
</g></g> </svg>
